<?xml version="1.0" standalone="no"?>
<!DOCTYPE svg PUBLIC "-//W3C//DTD SVG 20010904//EN"
 "http://www.w3.org/TR/2001/REC-SVG-20010904/DTD/svg10.dtd">
<svg version="1.0" xmlns="http://www.w3.org/2000/svg"
 width="512.000000pt" height="512.000000pt" viewBox="0 0 512.000000 512.000000"
 preserveAspectRatio="xMidYMid meet">

<g transform="translate(0.000000,512.000000) scale(0.100000,-0.100000)"
fill="#000000" stroke="none">
<path d="M524 5109 c-85 -25 -180 -121 -204 -207 -5 -20 -10 -76 -10 -123 l0
-86 -49 -6 c-94 -11 -177 -70 -227 -159 l-29 -53 0 -290 c0 -282 1 -291 23
-332 36 -68 83 -114 147 -145 l60 -28 338 0 337 0 0 -1114 0 -1114 -337 -4
-338 -3 -56 -26 c-66 -31 -120 -84 -151 -148 -22 -45 -23 -55 -23 -331 0 -276
1 -286 23 -331 45 -91 135 -157 238 -174 l42 -6 4 -102 c3 -80 8 -112 26 -148
30 -62 86 -116 152 -148 l55 -26 825 0 825 0 56 26 c31 15 72 43 93 64 l37 37
77 -40 c128 -67 208 -87 347 -87 98 0 134 5 195 24 78 24 175 70 221 103 l27
21 29 -20 c49 -35 146 -80 223 -104 108 -34 284 -34 390 -1 237 74 398 213
627 540 354 505 578 1037 600 1424 17 299 -99 622 -297 826 -56 58 -82 64
-124 31 -43 -34 -36 -78 22 -142 103 -113 186 -270 224 -423 31 -126 31 -336
0 -483 -38 -176 -119 -396 -219 -596 -54 -107 -314 -540 -378 -630 -171 -238
-343 -367 -547 -409 -95 -20 -133 -20 -223 -1 -85 18 -174 61 -245 117 -32 25
-62 41 -79 41 -16 0 -56 -22 -104 -56 -111 -80 -224 -117 -357 -117 -230 0
-482 195 -742 575 -234 341 -446 831 -503 1159 -88 512 225 986 743 1123 83
22 118 26 247 26 130 0 163 -3 247 -26 120 -32 269 -108 367 -187 89 -72 111
-75 173 -23 71 60 183 129 262 162 133 55 234 75 391 75 159 1 245 -15 381
-70 90 -36 122 -35 143 5 16 30 13 76 -7 94 -27 25 -165 76 -260 97 -284 64
-600 15 -838 -130 l-64 -39 0 37 c0 58 27 211 51 288 30 96 78 188 138 263 28
35 51 72 51 83 0 11 -14 33 -30 50 -25 24 -36 29 -58 23 -78 -19 -203 -220
-255 -410 -23 -86 -47 -230 -47 -286 0 -27 -2 -49 -5 -49 -2 0 -32 18 -65 39
-342 221 -871 208 -1222 -31 l-58 -39 0 361 0 360 333 0 c377 0 393 2 472 72
25 22 58 64 73 92 l27 51 0 290 c0 285 0 291 -24 335 -48 93 -135 156 -231
167 l-48 6 -4 106 c-3 86 -8 115 -27 151 -31 61 -76 107 -136 138 l-50 27
-830 2 c-482 1 -843 -2 -861 -8z m1676 -158 c61 -32 75 -61 78 -167 l4 -94
-912 0 -912 0 4 93 c2 75 7 98 25 123 48 67 5 64 883 64 755 0 797 -1 830 -19z
m309 -429 c19 -9 44 -30 55 -45 20 -27 21 -44 24 -280 3 -282 -1 -300 -67
-344 l-34 -23 -1117 0 -1117 0 -34 23 c-66 44 -70 62 -67 342 3 240 4 251 25
281 48 68 -29 64 1193 64 1033 0 1107 -1 1139 -18z m-839 -1278 l0 -436 -41
-49 c-97 -116 -178 -282 -221 -457 -19 -72 -22 -115 -22 -252 1 -185 16 -280
79 -475 19 -60 35 -113 35 -117 0 -5 -97 -8 -215 -8 l-215 0 0 1115 0 1115
300 0 300 0 0 -436z m-38 -2082 c72 -147 197 -367 284 -497 l54 -80 -407 -2
c-402 -3 -408 -3 -425 -24 -25 -29 -23 -81 3 -105 20 -18 45 -19 481 -22 l461
-3 21 -27 c11 -15 51 -61 88 -104 l68 -76 -35 -30 c-25 -22 -48 -32 -87 -37
-29 -3 -396 -5 -815 -3 -751 3 -762 3 -789 24 -57 42 -69 69 -72 164 l-4 89
195 3 c175 3 197 5 216 22 26 24 28 76 4 105 -17 20 -28 21 -320 23 -288 3
-303 4 -330 24 -15 11 -38 36 -50 54 -22 32 -23 41 -23 272 0 257 4 281 53
327 14 13 41 27 59 31 18 4 319 8 668 9 l635 1 67 -138z"/>
<path d="M2680 2394 c-93 -25 -161 -65 -236 -139 -111 -110 -154 -219 -153
-385 0 -85 18 -184 43 -242 7 -16 0 -18 -78 -18 -79 0 -89 -2 -111 -25 -14
-13 -25 -36 -25 -50 0 -14 11 -37 25 -50 23 -24 30 -25 144 -25 l120 0 44 -67
c94 -146 279 -328 492 -488 128 -96 274 -185 302 -185 31 0 88 30 194 101 263
177 519 422 628 600 l46 77 113 4 c105 3 115 5 133 27 25 30 24 76 -1 101 -17
17 -33 20 -101 20 -80 0 -81 0 -75 23 57 192 37 362 -60 509 -180 271 -573
304 -809 69 l-59 -59 -67 62 c-116 108 -236 157 -379 155 -41 0 -100 -7 -130
-15z m235 -149 c103 -27 198 -103 259 -208 44 -75 107 -77 152 -5 38 60 109
133 162 167 188 119 437 54 537 -140 49 -96 53 -213 10 -356 l-16 -53 -286 0
c-245 0 -289 -2 -304 -15 -9 -9 -34 -56 -54 -105 -21 -49 -41 -88 -44 -85 -4
2 -43 95 -86 207 -43 112 -87 213 -98 226 -26 28 -80 30 -104 3 -9 -11 -42
-75 -74 -143 l-56 -123 -206 -3 -205 -2 -20 53 c-52 138 -55 293 -8 385 86
170 256 245 441 197z m265 -840 c47 -122 90 -217 102 -227 22 -20 60 -23 87
-9 10 6 49 82 87 170 l69 161 208 0 208 0 -43 -62 c-98 -143 -372 -386 -581
-518 l-68 -42 -112 75 c-209 142 -395 306 -501 445 l-47 62 194 0 c228 0 227
0 272 105 15 36 31 63 36 58 4 -4 44 -102 89 -218z"/>
</g>
</svg>
